<?xml version="1.0" encoding="utf-8"?>
<!-- Generator: Adobe Illustrator 17.0.0, SVG Export Plug-In . SVG Version: 6.00 Build 0)  -->
<!DOCTYPE svg PUBLIC "-//W3C//DTD SVG 1.1//EN" "http://www.w3.org/Graphics/SVG/1.1/DTD/svg11.dtd">
<svg version="1.1" id="Layer_1" xmlns="http://www.w3.org/2000/svg" xmlns:xlink="http://www.w3.org/1999/xlink" x="0px" y="0px"
	 width="171.5px" height="41px" viewBox="17.054 4.002 171.5 41" enable-background="new 17.054 4.002 171.5 41"
	 xml:space="preserve">
<g>
	<path fill="#153E81" d="M17.371,4.137h3.901V23.5c0,3.489,3.214,8.556,9.656,8.556c6.443,0,10.34-6.053,10.34-6.053L41.222,4.137
		h3.901v30.437H41.07v-3.657c0,0-3.656,4.034-10.98,4.034c-7.321,0-12.369-5.863-12.369-10.326
		C17.719,20.163,17.371,4.137,17.371,4.137"/>
	<path fill="#1FACE3" d="M42.292,37.887c-3.655,0-6.847-0.839-9.47-3.015c-2.468-2.049-3.383-3.986-3.577-9.085
		c0.047-5.137-0.012-21.65-0.012-21.65h2.546c0,0-0.291,12.663-0.312,15.831c-0.02,3.166-0.595,10.086,2.335,12.789
		c2.932,2.7,4.845,3.513,8.458,3.523c4.343,0.013,9.347-3.43,10.757-6.392c0.086-3.665,0.038-25.752,0.038-25.752h2.504
		c0,0-0.527,27.795-0.527,30.011c0,2.217-2.272,6.011-7.407,7.287c-5.136,1.273-16.134,0.421-16.134,0.421v-2.748
		c0,0,6.759,1.15,10.858,1.15s10.401-0.802,10.573-7.234c-2.668,2.319-4.677,4.428-10.678,4.945"/>
	<polygon fill="#153E81" points="62.086,42.041 62.086,32.05 67.668,32.05 67.668,33.106 63.502,33.106 63.502,36.316 
		66.991,36.316 66.991,37.362 63.502,37.362 63.502,40.98 67.96,40.98 67.96,42.041 	"/>
	<polygon fill="#153E81" points="68.883,42.041 71.673,38.257 68.963,34.709 70.545,34.709 72.685,37.536 74.617,34.709 
		75.918,34.709 73.385,38.43 76.142,42.041 74.561,42.041 72.353,39.135 70.216,42.041 	"/>
	<path fill="#153E81" d="M78.1,44.707v-9.998h1.328v1.377c0.545-1.025,1.363-1.538,2.458-1.538c0.885,0,1.582,0.321,2.088,0.964
		c0.509,0.643,0.764,1.526,0.764,2.641c0,1.214-0.287,2.193-0.865,2.942c-0.574,0.742-1.334,1.115-2.273,1.115
		c-0.868,0-1.594-0.333-2.172-0.997v3.495C79.427,44.707,78.1,44.707,78.1,44.707z M79.427,40.294
		c0.684,0.614,1.337,0.918,1.962,0.918c0.613,0,1.088-0.258,1.425-0.766c0.333-0.513,0.5-1.23,0.5-2.154
		c0-1.719-0.572-2.579-1.71-2.579c-0.744,0-1.469,0.402-2.178,1.207C79.427,36.92,79.427,40.294,79.427,40.294z"/>
	<path fill="#153E81" d="M86.82,42.041v-7.332h1.337v1.377c0.528-1.025,1.297-1.538,2.297-1.538l0.426,0.032v1.251
		c-0.228-0.076-0.432-0.117-0.608-0.117c-0.84,0-1.546,0.499-2.115,1.499v4.83L86.82,42.041L86.82,42.041z"/>
	<path fill="#153E81" d="M97.858,41.803c-0.889,0.273-1.649,0.406-2.283,0.406c-1.086,0-1.969-0.357-2.649-1.077
		c-0.679-0.716-1.021-1.645-1.021-2.787c0-1.113,0.303-2.02,0.903-2.733c0.602-0.712,1.367-1.065,2.305-1.065
		c0.887,0,1.574,0.317,2.055,0.948c0.485,0.634,0.727,1.529,0.727,2.688l-0.007,0.409h-4.626c0.192,1.737,1.047,2.605,2.558,2.605
		c0.556,0,1.235-0.151,2.037-0.45L97.858,41.803L97.858,41.803z M93.324,37.592h3.234c0-1.364-0.51-2.045-1.527-2.045
		C94.011,35.548,93.441,36.228,93.324,37.592"/>
	<path fill="#153E81" d="M99.922,41.783v-1.218c0.866,0.429,1.622,0.647,2.267,0.647c0.38,0,0.698-0.105,0.952-0.314
		c0.251-0.204,0.377-0.463,0.377-0.778c0-0.45-0.355-0.823-1.061-1.122l-0.778-0.332c-1.145-0.477-1.718-1.163-1.718-2.058
		c0-0.638,0.224-1.144,0.676-1.513c0.452-0.365,1.074-0.548,1.86-0.548c0.409,0,0.915,0.057,1.518,0.17l0.279,0.052v1.106
		c-0.741-0.22-1.335-0.329-1.778-0.329c-0.387,0-0.695,0.081-0.928,0.251c-0.23,0.17-0.347,0.396-0.347,0.677
		c0,0.4,0.327,0.74,0.973,1.012l0.641,0.274c0.727,0.303,1.24,0.629,1.539,0.964c0.303,0.344,0.452,0.769,0.452,1.276
		c0,0.643-0.253,1.174-0.762,1.587c-0.509,0.412-1.161,0.62-1.95,0.62C101.528,42.209,100.788,42.066,99.922,41.783"/>
	<path fill="#153E81" d="M106.97,41.783v-1.218c0.866,0.429,1.621,0.647,2.267,0.647c0.379,0,0.697-0.105,0.954-0.314
		c0.252-0.204,0.376-0.463,0.376-0.778c0-0.45-0.353-0.823-1.057-1.122l-0.777-0.332c-1.15-0.477-1.723-1.163-1.723-2.058
		c0-0.638,0.225-1.144,0.679-1.513c0.452-0.365,1.071-0.548,1.858-0.548c0.409,0,0.918,0.057,1.52,0.17l0.277,0.052v1.106
		c-0.741-0.22-1.335-0.329-1.772-0.329c-0.392,0-0.7,0.081-0.931,0.251s-0.348,0.396-0.348,0.677c0,0.4,0.327,0.74,0.972,1.012
		l0.642,0.274c0.724,0.303,1.238,0.629,1.537,0.964c0.302,0.344,0.455,0.769,0.455,1.276c0,0.643-0.255,1.174-0.765,1.587
		c-0.51,0.412-1.159,0.62-1.952,0.62C108.575,42.209,107.836,42.066,106.97,41.783"/>
	<path fill="#153E81" d="M117.151,42.041V32.05h3.324c0.991,0,1.789,0.109,2.397,0.331c0.612,0.22,1.138,0.596,1.586,1.12
		c0.703,0.84,1.056,1.938,1.056,3.306c0,1.547-0.415,2.797-1.239,3.757c-0.45,0.526-0.973,0.903-1.565,1.134
		c-0.588,0.231-1.329,0.344-2.217,0.344H117.151z M118.571,40.981h1.812c1.3,0,2.217-0.348,2.759-1.048
		c0.58-0.741,0.868-1.737,0.868-2.988c0-1.178-0.285-2.098-0.855-2.77c-0.347-0.409-0.763-0.692-1.243-0.838
		c-0.481-0.153-1.207-0.23-2.173-0.23h-1.169L118.571,40.981L118.571,40.981z"/>
	<path fill="#153E81" d="M127.548,32.05h1.33v1.328h-1.33V32.05z M127.548,34.709h1.33v7.333h-1.33V34.709z"/>
	<path fill="#153E81" d="M131.574,44.476l0.155-1.146c0.772,0.361,1.529,0.539,2.285,0.539c1.494,0,2.246-0.795,2.246-2.385v-1.15
		c-0.229,0.485-0.56,0.863-0.987,1.134c-0.423,0.271-0.898,0.405-1.422,0.405c-0.889,0-1.588-0.318-2.109-0.955
		c-0.517-0.634-0.778-1.498-0.778-2.59c0-1.115,0.296-2.024,0.887-2.726c0.587-0.7,1.354-1.052,2.291-1.052
		c0.82,0,1.527,0.332,2.118,1V34.71h1.33v5.334c0,1.146-0.061,1.999-0.18,2.55c-0.12,0.551-0.345,1.004-0.672,1.35
		c-0.578,0.618-1.488,0.926-2.725,0.926C133.172,44.867,132.354,44.738,131.574,44.476 M136.26,39.495v-3.04
		c-0.587-0.604-1.225-0.908-1.917-0.908c-0.613,0-1.093,0.243-1.441,0.734c-0.342,0.49-0.518,1.169-0.518,2.036
		c0,1.591,0.566,2.385,1.695,2.385C134.851,40.702,135.578,40.299,136.26,39.495"/>
	<path fill="#153E81" d="M140.169,32.05h1.328v1.328h-1.328V32.05z M140.169,34.709h1.328v7.333h-1.328V34.709z"/>
	<path fill="#153E81" d="M147.431,42.041c-0.409,0.111-0.765,0.168-1.064,0.168c-0.677,0-1.204-0.195-1.583-0.58
		c-0.377-0.387-0.566-0.926-0.566-1.612v-4.31H143.3v-0.997h0.918v-1.331l1.331-0.13v1.46h1.916v0.997h-1.916v4.068
		c0,0.955,0.413,1.438,1.24,1.438c0.177,0,0.391-0.032,0.642-0.088V42.041z"/>
	<path fill="#153E81" d="M153.117,41.106c-0.797,0.733-1.563,1.102-2.301,1.102c-0.61,0-1.113-0.191-1.513-0.568
		c-0.404-0.382-0.604-0.866-0.604-1.442c0-0.805,0.341-1.42,1.011-1.85c0.674-0.426,1.638-0.643,2.9-0.643h0.312v-0.887
		c0-0.846-0.446-1.272-1.332-1.272c-0.687,0-1.44,0.216-2.252,0.647v-1.1c0.895-0.365,1.739-0.548,2.528-0.548
		c0.817,0,1.417,0.182,1.805,0.555c0.385,0.371,0.579,0.943,0.579,1.716v3.324c0,0.765,0.234,1.142,0.703,1.142l0.257-0.025
		l0.095,0.733c-0.303,0.143-0.636,0.216-0.998,0.216C153.685,42.209,153.286,41.84,153.117,41.106 M152.922,40.386v-1.894
		l-0.425-0.017c-0.739,0-1.335,0.139-1.785,0.413c-0.455,0.273-0.682,0.637-0.682,1.094c0,0.317,0.111,0.591,0.34,0.81
		c0.224,0.219,0.499,0.332,0.824,0.332C151.744,41.123,152.322,40.876,152.922,40.386"/>
	<rect x="156.974" y="31.382" fill="#153E81" width="1.329" height="10.66"/>
	<rect x="160.97" y="31.382" fill="#153E81" width="1.329" height="10.66"/>
	<polygon fill="#153E81" points="165.388,44.707 166.579,42.041 163.743,34.709 165.183,34.709 167.281,40.224 169.518,34.709 
		170.778,34.709 166.773,44.707 	"/>
	<path fill="#153E81" d="M84.443,10.184l-2.827,8.744l-0.169-0.47l-2.751-8.274h-3.798l5.049,12.625l-0.204,0.626
		c-0.259,0.757-0.618,1.324-1.076,1.701c-0.459,0.375-0.995,0.563-1.608,0.563H75.68l-2.106,2.798h3.882
		c1.223,0,2.288-0.331,3.204-0.989c0.918-0.66,1.622-1.653,2.118-2.978l5.396-14.343h-3.731V10.184z"/>
	<path fill="#153E81" d="M93.612,10.108c-1.608,0-2.848,0.298-3.725,0.894c-0.874,0.595-1.314,1.438-1.314,2.528
		c0,0.636,0.104,1.171,0.314,1.607c0.209,0.435,0.541,0.82,1,1.158c0.458,0.336,1.178,0.702,2.155,1.096
		c0.682,0.278,1.228,0.52,1.637,0.729c0.411,0.209,0.7,0.396,0.866,0.56c0.165,0.165,0.249,0.378,0.249,0.641
		c0,0.703-0.63,1.054-1.888,1.054h-1.518l-2.165,2.446h3.569c1.804,0,3.159-0.329,4.066-0.988c0.906-0.658,1.359-1.615,1.359-2.874
		c0-0.606-0.111-1.129-0.33-1.568c-0.222-0.438-0.563-0.826-1.025-1.163c-0.461-0.335-1.189-0.698-2.183-1.086
		c-1.114-0.431-1.835-0.756-2.166-0.976c-0.331-0.22-0.495-0.48-0.495-0.779c0-0.534,0.511-0.8,1.536-0.8h2.691l-2.587-2.479H93.612
		z"/>
	<path fill="#153E81" d="M145.819,10.182c-1.551,0-2.748,0.298-3.594,0.894c-0.843,0.597-1.267,1.44-1.267,2.529
		c0,0.636,0.101,1.171,0.302,1.608c0.201,0.434,0.523,0.82,0.965,1.157c0.442,0.336,1.138,0.701,2.08,1.096
		c0.657,0.278,1.185,0.521,1.58,0.73c0.395,0.209,0.671,0.394,0.833,0.56c0.16,0.165,0.242,0.378,0.242,0.641
		c0,0.702-0.606,1.052-1.822,1.052h-2.09l-2.09,2.448h4.07c1.74,0,3.047-0.329,3.922-0.988c0.875-0.657,1.312-1.615,1.312-2.875
		c0-0.606-0.106-1.129-0.318-1.568c-0.214-0.439-0.543-0.826-0.988-1.163c-0.446-0.336-1.149-0.699-2.107-1.086
		c-1.074-0.432-1.771-0.757-2.09-0.977c-0.319-0.219-0.477-0.479-0.477-0.779c0-0.534,0.495-0.8,1.482-0.8h3.85l0.012-2.48
		L145.819,10.182L145.819,10.182z"/>
	<path fill="#153E81" d="M69.067,4.434c-2.012,0-3.566,0.386-4.663,1.16c-1.096,0.773-1.644,1.868-1.644,3.282
		c0,0.826,0.13,1.521,0.391,2.085c0.261,0.564,0.679,1.066,1.253,1.503c0.574,0.436,1.474,0.91,2.698,1.423
		c0.855,0.361,1.538,0.677,2.05,0.948c0.513,0.27,0.874,0.512,1.083,0.725c0.209,0.214,0.314,0.491,0.314,0.834
		c0,0.911-0.789,1.366-2.364,1.366h-5.424v3.175h5.282c2.259,0,3.956-0.426,5.089-1.281c1.134-0.854,1.701-2.098,1.701-3.731
		c0-0.787-0.137-1.466-0.413-2.036c-0.274-0.569-0.702-1.073-1.281-1.509c-0.578-0.436-1.49-0.906-2.733-1.409
		c-1.396-0.56-2.3-0.982-2.712-1.267c-0.411-0.286-0.619-0.624-0.619-1.012c0-0.693,0.641-1.04,1.923-1.04h5.418l0.033-3.217
		C74.449,4.434,69.067,4.434,69.067,4.434z"/>
	<path fill="#153E81" d="M99.566,7.476v5.311v5.826c0,1.402,0.318,2.454,0.951,3.156c0.634,0.701,1.642,1.052,3.03,1.052h4.133
		l-1.735-2.764h-1.397c-0.455,0-0.822-0.119-1.097-0.353c-0.278-0.236-0.414-0.598-0.414-1.091v-5.826h3.558v-2.604h-3.558V7.476
		H99.566z"/>
	<path fill="#153E81" d="M108.827,11.838c-1.065,1.118-1.597,2.7-1.597,4.747c0,1.986,0.576,3.524,1.729,4.61
		c1.151,1.085,2.752,1.627,4.798,1.627h5.187l-1.892-2.479h-3.135c-0.986,0-1.751-0.266-2.297-0.798
		c-0.546-0.531-0.837-1.271-0.876-2.218l-0.007-1.994c0.062-0.825,0.385-1.681,0.803-2.129c0.417-0.449,0.992-0.672,1.728-0.672
		c0.736,0,1.319,0.224,1.751,0.672c0.432,0.448,0.657,1.083,0.672,1.905h-0.871l-1.734,2.218h5.858v-1.617
		c0-1.733-0.5-3.091-1.5-4.075c-1.002-0.982-2.401-1.474-4.198-1.474C111.364,10.161,109.892,10.72,108.827,11.838"/>
	<path fill="#153E81" d="M132.933,10.65c-0.662,0.326-1.164,0.785-1.507,1.375h-0.308c-0.675-1.243-1.963-1.864-3.867-1.864
		c-0.833,0-1.573,0.165-2.219,0.495c-0.643,0.33-1.135,0.787-1.476,1.369h-0.193l-3.116-1.842v12.715h3.468v-5.767
		c0-1.494,0.201-2.565,0.602-3.218c0.402-0.652,1.048-0.977,1.934-0.977c0.66,0,1.144,0.229,1.451,0.689
		c0.307,0.457,0.46,1.145,0.46,2.064v7.21h3.468v-6.165c0-1.318,0.212-2.282,0.633-2.888c0.421-0.607,1.056-0.91,1.907-0.91
		c0.66,0,1.141,0.229,1.45,0.689c0.305,0.457,0.46,1.145,0.46,2.064v7.21h3.479v-8.075c0-1.63-0.37-2.814-1.109-3.553
		c-0.74-0.739-1.829-1.11-3.269-1.11C134.344,10.161,133.596,10.324,132.933,10.65"/>
	<g>
		<path fill="#153E81" d="M155.637,23.222V10.606h3.409v9.863h4.858v2.753H155.637z"/>
		<path fill="#153E81" d="M170.514,20.729c0.455,0,0.998-0.112,1.632-0.337v2.459c-0.455,0.195-0.888,0.336-1.299,0.419
			s-0.894,0.126-1.445,0.126c-1.133,0-1.95-0.277-2.45-0.833c-0.5-0.555-0.751-1.408-0.751-2.559v-4.029h-1.182v-1.373l1.502-1.061
			l0.871-2.054h2.209v1.959h2.399v2.528H169.6v3.806C169.6,20.413,169.904,20.729,170.514,20.729z"/>
		<path fill="#153E81" d="M176.892,23.395c-0.696,0-1.305-0.199-1.825-0.595c-0.52-0.397-0.923-0.981-1.208-1.752
			c-0.285-0.77-0.427-1.671-0.427-2.7c0-1.588,0.319-2.831,0.957-3.729c0.638-0.898,1.516-1.346,2.632-1.346
			c0.547,0,1.026,0.11,1.437,0.328c0.411,0.219,0.787,0.587,1.126,1.105h0.069c-0.11-0.766-0.164-1.53-0.164-2.296V9.795h3.399
			v13.428h-2.546l-0.725-1.234h-0.13C178.908,22.926,178.042,23.395,176.892,23.395z M178.272,20.729c0.541,0,0.922-0.17,1.143-0.51
			c0.222-0.339,0.342-0.863,0.358-1.57v-0.268c0-0.863-0.124-1.477-0.372-1.843c-0.247-0.365-0.636-0.548-1.164-0.548
			c-0.443,0-0.787,0.209-1.031,0.626c-0.244,0.417-0.367,1.011-0.367,1.782c0,0.759,0.123,1.337,0.372,1.735
			C177.458,20.531,177.813,20.729,178.272,20.729z"/>
		<path fill="#153E81" d="M184.797,21.79c0-0.529,0.156-0.938,0.47-1.225c0.313-0.288,0.77-0.431,1.367-0.431
			c0.57,0,1.007,0.144,1.312,0.431c0.305,0.288,0.457,0.697,0.457,1.225c0,0.518-0.157,0.922-0.47,1.213s-0.746,0.436-1.299,0.436
			c-0.569,0-1.018-0.144-1.346-0.431C184.961,22.719,184.797,22.314,184.797,21.79z"/>
	</g>
</g>
</svg>
